<svg width="46" height="46" viewBox="0 0 46 46" fill="none" xmlns="http://www.w3.org/2000/svg">
<path d="M11.5987 21.9626L14.5125 16.8745C14.6663 16.608 14.8876 16.3869 15.1541 16.2333C15.4207 16.0796 15.723 15.999 16.0306 15.9995H19.6859C19.9814 15.9999 20.2722 15.9246 20.5303 15.7807L23.2187 14.302C23.337 14.2383 23.4466 14.1596 23.5447 14.0679L29.4334 8.7457C29.7264 8.47922 29.9203 8.12123 29.9835 7.73024C30.0467 7.33926 29.9754 6.93841 29.7812 6.5932L27.4843 2.47852M9.8269 6.64502L7.25003 12.7372C7.07597 13.1496 7.06658 13.6131 7.22378 14.0322L9.7394 20.7413C9.84276 21.0154 10.0133 21.2592 10.2353 21.4503C10.4574 21.6414 10.7239 21.7737 11.0103 21.835L15.6982 22.8435C15.9582 22.8992 16.202 23.0135 16.4113 23.1776C16.6205 23.3418 16.7896 23.5514 16.9057 23.7906L17.7369 25.5122C17.8803 25.808 18.1041 26.0574 18.3826 26.2318C18.6612 26.4063 18.9832 26.4988 19.3119 26.4988H22.3307M41.6134 32.7305L30.1553 25.6824C29.9469 25.5554 29.7146 25.4727 29.4728 25.4396L24.4809 24.7658C24.106 24.7151 23.7247 24.7872 23.3942 24.9713C23.0637 25.1555 22.8018 25.4418 22.6478 25.7874L19.6509 32.5118C19.5116 32.8247 19.4672 33.1716 19.5232 33.5095C19.5792 33.8474 19.7331 34.1614 19.9659 34.4127L24.284 38.8599C24.4712 39.0611 24.6084 39.3037 24.6844 39.5678C24.7604 39.8319 24.7731 40.1102 24.7215 40.3802L24.0281 43.9764M44 23C44 34.598 34.598 44 23 44C11.402 44 2 34.598 2 23C2 11.402 11.402 2 23 2C34.598 2 44 11.402 44 23Z" stroke="black" stroke-width="2.5" stroke-linecap="round" stroke-linejoin="round"/>
</svg>
